<svg width="115" height="105" viewBox="0 0 115 105" fill="none" xmlns="http://www.w3.org/2000/svg">
<g filter="url(#filter0_d)">
<mask id="path-1-inside-1" fill="white">
<path d="M47.3499 42.7547C40.2653 42.7547 34.5015 48.5185 34.5015 55.6031C34.5015 62.0785 39.3046 65.9445 47.3499 65.9445C55.3952 65.9445 60.1982 62.0785 60.1982 55.6031C60.1982 48.5185 54.4345 42.7547 47.3499 42.7547ZM47.3499 62.8105C43.7219 62.8105 37.6353 61.8741 37.6353 55.6029C37.6353 50.246 41.9932 45.8882 47.3499 45.8882C52.7064 45.8882 57.0645 50.246 57.0645 55.6029C57.0645 61.8741 50.9779 62.8105 47.3499 62.8105Z"/>
<path d="M41.0824 30.2198C37.8797 30.2198 35.755 34.1809 35.755 36.8008C35.755 39.7382 38.1447 42.1282 41.0824 42.1282C44.0201 42.1282 46.4098 39.7384 46.4098 36.8008C46.4098 34.1807 44.2851 30.2198 41.0824 30.2198ZM41.0824 38.9943C39.8728 38.9943 38.8887 38.0104 38.8887 36.8005C38.8887 35.3184 40.1393 33.3533 41.0824 33.3533C42.0255 33.3533 43.2761 35.3184 43.2761 36.8005C43.2761 38.0101 42.292 38.9943 41.0824 38.9943Z"/>
<path d="M53.6173 30.2198C50.4146 30.2198 48.2899 34.1809 48.2899 36.8008C48.2899 39.7382 50.6796 42.1282 53.6173 42.1282C56.555 42.1282 58.9447 39.7384 58.9447 36.8008C58.9447 34.1807 56.82 30.2198 53.6173 30.2198ZM53.6173 38.9943C52.4077 38.9943 51.4236 38.0104 51.4236 36.8005C51.4236 35.3184 52.6741 33.3533 53.6173 33.3533C54.5604 33.3533 55.811 35.3184 55.811 36.8005C55.811 38.0101 54.8269 38.9943 53.6173 38.9943Z"/>
<path d="M63.6451 37.7408C60.4424 37.7408 58.3177 41.7019 58.3177 44.3217C58.3177 47.2592 60.7074 49.6491 63.6451 49.6491C66.5828 49.6491 68.9725 47.2594 68.9725 44.3217C68.9725 41.7017 66.8478 37.7408 63.6451 37.7408ZM63.6451 46.5152C62.4355 46.5152 61.4514 45.5313 61.4514 44.3215C61.4514 42.8394 62.702 40.8743 63.6451 40.8743C64.5883 40.8743 65.8388 42.8394 65.8388 44.3215C65.8388 45.5311 64.8547 46.5152 63.6451 46.5152Z"/>
<path d="M31.0544 37.7408C27.8517 37.7408 25.727 41.7019 25.727 44.3217C25.727 47.2592 28.1167 49.6491 31.0544 49.6491C33.9921 49.6491 36.3818 47.2594 36.3818 44.3217C36.3818 41.7017 34.2571 37.7408 31.0544 37.7408ZM31.0544 46.5152C29.8448 46.5152 28.8607 45.5313 28.8607 44.3215C28.8607 42.8394 30.1112 40.8743 31.0544 40.8743C31.9975 40.8743 33.2481 42.8394 33.2481 44.3215C33.2481 45.5311 32.264 46.5152 31.0544 46.5152Z"/>
<path d="M50.6925 52.7826H48.9168V51.0069C48.9168 50.1413 48.2152 49.4401 47.35 49.4401C46.4848 49.4401 45.7833 50.1415 45.7833 51.0069V52.7826H44.0075C43.1421 52.7826 42.4408 53.484 42.4408 54.3494C42.4408 55.215 43.1424 55.9161 44.0075 55.9161H45.7833V57.6919C45.7833 58.5575 46.4848 59.2586 47.35 59.2586C48.2152 59.2586 48.9168 58.5573 48.9168 57.6919V55.9161H50.6925C51.5579 55.9161 52.2593 55.2148 52.2593 54.3494C52.2593 53.484 51.5577 52.7826 50.6925 52.7826Z"/>
<path d="M66.1969 3.26783C61.4824 1.74412 56.547 0.971924 51.5281 0.971924C38.8327 0.971924 26.8974 5.91566 17.9204 14.8926C8.94374 23.8695 4 35.8048 4 48.5C4 61.1952 8.94373 73.1305 17.9207 82.1076C26.8976 91.0845 38.8329 96.0283 51.5283 96.0283C52.3937 96.0283 53.095 95.3269 53.095 94.4615C53.095 93.5959 52.3935 92.8948 51.5283 92.8948C39.6701 92.8948 28.5216 88.2768 20.1367 79.892C11.7516 71.5065 7.13372 60.3582 7.13372 48.5C7.13372 36.6418 11.7516 25.4935 20.1365 17.1084C28.5216 8.72316 39.6699 4.10564 51.5281 4.10564C56.2196 4.10564 60.8304 4.82706 65.2333 6.25003C66.0458 6.51356 66.9434 6.05317 67.2061 5.24106C67.4688 4.42832 67.0094 3.53031 66.1969 3.26783Z"/>
<path d="M110.612 43.9273L105.11 37.6382C104.548 36.9959 103.541 36.9284 102.899 37.4906L98.516 41.3255C97.004 31.3688 92.319 22.0755 85.1356 14.8921C81.712 11.4685 77.8306 8.605 73.5984 6.38141C72.8425 5.9835 71.8797 6.28361 71.4825 7.03929C71.0854 7.79519 71.3847 8.75798 72.1405 9.15526C76.0929 11.2324 79.7194 13.908 82.9195 17.1082C90.4058 24.5944 94.8429 34.0996 95.751 44.5959C95.8594 45.8481 97.3957 46.4696 98.3438 45.64L103.783 40.8808L107.222 44.8113L95.0304 55.4789C94.0584 56.3295 92.5633 56.3295 91.5911 55.4789L79.3996 44.8113L82.8389 40.8808L87.8392 45.2561C88.8963 46.1808 90.5911 45.2868 90.4273 43.8937C88.1082 24.1883 71.3851 9.3283 51.5282 9.3283C29.9288 9.3283 12.3566 26.9005 12.3566 48.4999C12.3566 70.0993 29.9288 87.6715 51.5282 87.6715C52.3936 87.6715 53.095 86.9702 53.095 86.1046C53.095 85.2389 52.3934 84.5378 51.5282 84.5378C31.6569 84.5378 15.4903 68.3714 15.4903 48.4999C15.4903 28.6284 31.6567 12.462 51.528 12.462C68.3199 12.462 82.6765 24.0132 86.544 39.9587L83.7235 37.4908C83.0811 36.9289 82.0742 36.9966 81.5127 37.6384L76.0099 43.9275C75.44 44.5787 75.506 45.5685 76.1574 46.1384L89.528 57.8375C91.6666 59.7088 94.9558 59.7088 97.0945 57.8375L110.465 46.1384C111.116 45.5685 111.182 44.5787 110.612 43.9273Z"/>
<path d="M77.4335 90.3873H65.8029C70.9836 86.5323 79.0005 79.3615 79.0005 71.8982C79.0005 66.4266 74.5487 61.9748 69.077 61.9748C63.6054 61.9748 59.1536 66.4266 59.1536 71.8982C59.1536 72.7638 59.8552 73.465 60.7204 73.465C61.5856 73.465 62.2871 72.7636 62.2871 71.8982C62.2871 68.1543 65.3331 65.1085 69.0768 65.1085C72.8206 65.1085 75.8665 68.1543 75.8665 71.8982C75.8665 80.9205 60.0732 90.5147 59.9139 90.6103C59.2987 90.9793 59.0096 91.7444 59.2268 92.4282C59.431 93.0715 60.0456 93.5208 60.7202 93.5208H77.4333C78.2987 93.5208 79 92.8194 79 91.954C79.0005 91.0886 78.2989 90.3873 77.4335 90.3873Z"/>
<path d="M102.503 83.7022H99.0563V63.5419C99.0563 62.8996 98.6492 62.3078 98.0496 62.0783C97.4101 61.8336 96.665 62.0434 96.2475 62.5862L79.5344 84.3132C78.7566 85.3245 79.503 86.8355 80.7764 86.8355H95.9227V91.9539C95.9227 92.8195 96.6243 93.5207 97.4895 93.5207C98.3547 93.5207 99.0563 92.8193 99.0563 91.9539V86.8355H102.503C103.369 86.8355 104.07 86.1341 104.07 85.2687C104.07 84.4033 103.369 83.7022 102.503 83.7022ZM95.9225 83.7022H83.9582L95.9225 68.1487V83.7022Z"/>
</mask>
<path d="M47.3499 42.7547C40.2653 42.7547 34.5015 48.5185 34.5015 55.6031C34.5015 62.0785 39.3046 65.9445 47.3499 65.9445C55.3952 65.9445 60.1982 62.0785 60.1982 55.6031C60.1982 48.5185 54.4345 42.7547 47.3499 42.7547ZM47.3499 62.8105C43.7219 62.8105 37.6353 61.8741 37.6353 55.6029C37.6353 50.246 41.9932 45.8882 47.3499 45.8882C52.7064 45.8882 57.0645 50.246 57.0645 55.6029C57.0645 61.8741 50.9779 62.8105 47.3499 62.8105Z" fill="#A07B50"/>
<path d="M41.0824 30.2198C37.8797 30.2198 35.755 34.1809 35.755 36.8008C35.755 39.7382 38.1447 42.1282 41.0824 42.1282C44.0201 42.1282 46.4098 39.7384 46.4098 36.8008C46.4098 34.1807 44.2851 30.2198 41.0824 30.2198ZM41.0824 38.9943C39.8728 38.9943 38.8887 38.0104 38.8887 36.8005C38.8887 35.3184 40.1393 33.3533 41.0824 33.3533C42.0255 33.3533 43.2761 35.3184 43.2761 36.8005C43.2761 38.0101 42.292 38.9943 41.0824 38.9943Z" fill="#A07B50"/>
<path d="M53.6173 30.2198C50.4146 30.2198 48.2899 34.1809 48.2899 36.8008C48.2899 39.7382 50.6796 42.1282 53.6173 42.1282C56.555 42.1282 58.9447 39.7384 58.9447 36.8008C58.9447 34.1807 56.82 30.2198 53.6173 30.2198ZM53.6173 38.9943C52.4077 38.9943 51.4236 38.0104 51.4236 36.8005C51.4236 35.3184 52.6741 33.3533 53.6173 33.3533C54.5604 33.3533 55.811 35.3184 55.811 36.8005C55.811 38.0101 54.8269 38.9943 53.6173 38.9943Z" fill="#A07B50"/>
<path d="M63.6451 37.7408C60.4424 37.7408 58.3177 41.7019 58.3177 44.3217C58.3177 47.2592 60.7074 49.6491 63.6451 49.6491C66.5828 49.6491 68.9725 47.2594 68.9725 44.3217C68.9725 41.7017 66.8478 37.7408 63.6451 37.7408ZM63.6451 46.5152C62.4355 46.5152 61.4514 45.5313 61.4514 44.3215C61.4514 42.8394 62.702 40.8743 63.6451 40.8743C64.5883 40.8743 65.8388 42.8394 65.8388 44.3215C65.8388 45.5311 64.8547 46.5152 63.6451 46.5152Z" fill="#A07B50"/>
<path d="M31.0544 37.7408C27.8517 37.7408 25.727 41.7019 25.727 44.3217C25.727 47.2592 28.1167 49.6491 31.0544 49.6491C33.9921 49.6491 36.3818 47.2594 36.3818 44.3217C36.3818 41.7017 34.2571 37.7408 31.0544 37.7408ZM31.0544 46.5152C29.8448 46.5152 28.8607 45.5313 28.8607 44.3215C28.8607 42.8394 30.1112 40.8743 31.0544 40.8743C31.9975 40.8743 33.2481 42.8394 33.2481 44.3215C33.2481 45.5311 32.264 46.5152 31.0544 46.5152Z" fill="#A07B50"/>
<path d="M50.6925 52.7826H48.9168V51.0069C48.9168 50.1413 48.2152 49.4401 47.35 49.4401C46.4848 49.4401 45.7833 50.1415 45.7833 51.0069V52.7826H44.0075C43.1421 52.7826 42.4408 53.484 42.4408 54.3494C42.4408 55.215 43.1424 55.9161 44.0075 55.9161H45.7833V57.6919C45.7833 58.5575 46.4848 59.2586 47.35 59.2586C48.2152 59.2586 48.9168 58.5573 48.9168 57.6919V55.9161H50.6925C51.5579 55.9161 52.2593 55.2148 52.2593 54.3494C52.2593 53.484 51.5577 52.7826 50.6925 52.7826Z" fill="#A07B50"/>
<path d="M66.1969 3.26783C61.4824 1.74412 56.547 0.971924 51.5281 0.971924C38.8327 0.971924 26.8974 5.91566 17.9204 14.8926C8.94374 23.8695 4 35.8048 4 48.5C4 61.1952 8.94373 73.1305 17.9207 82.1076C26.8976 91.0845 38.8329 96.0283 51.5283 96.0283C52.3937 96.0283 53.095 95.3269 53.095 94.4615C53.095 93.5959 52.3935 92.8948 51.5283 92.8948C39.6701 92.8948 28.5216 88.2768 20.1367 79.892C11.7516 71.5065 7.13372 60.3582 7.13372 48.5C7.13372 36.6418 11.7516 25.4935 20.1365 17.1084C28.5216 8.72316 39.6699 4.10564 51.5281 4.10564C56.2196 4.10564 60.8304 4.82706 65.2333 6.25003C66.0458 6.51356 66.9434 6.05317 67.2061 5.24106C67.4688 4.42832 67.0094 3.53031 66.1969 3.26783Z" fill="#A07B50"/>
<path d="M110.612 43.9273L105.11 37.6382C104.548 36.9959 103.541 36.9284 102.899 37.4906L98.516 41.3255C97.004 31.3688 92.319 22.0755 85.1356 14.8921C81.712 11.4685 77.8306 8.605 73.5984 6.38141C72.8425 5.9835 71.8797 6.28361 71.4825 7.03929C71.0854 7.79519 71.3847 8.75798 72.1405 9.15526C76.0929 11.2324 79.7194 13.908 82.9195 17.1082C90.4058 24.5944 94.8429 34.0996 95.751 44.5959C95.8594 45.8481 97.3957 46.4696 98.3438 45.64L103.783 40.8808L107.222 44.8113L95.0304 55.4789C94.0584 56.3295 92.5633 56.3295 91.5911 55.4789L79.3996 44.8113L82.8389 40.8808L87.8392 45.2561C88.8963 46.1808 90.5911 45.2868 90.4273 43.8937C88.1082 24.1883 71.3851 9.3283 51.5282 9.3283C29.9288 9.3283 12.3566 26.9005 12.3566 48.4999C12.3566 70.0993 29.9288 87.6715 51.5282 87.6715C52.3936 87.6715 53.095 86.9702 53.095 86.1046C53.095 85.2389 52.3934 84.5378 51.5282 84.5378C31.6569 84.5378 15.4903 68.3714 15.4903 48.4999C15.4903 28.6284 31.6567 12.462 51.528 12.462C68.3199 12.462 82.6765 24.0132 86.544 39.9587L83.7235 37.4908C83.0811 36.9289 82.0742 36.9966 81.5127 37.6384L76.0099 43.9275C75.44 44.5787 75.506 45.5685 76.1574 46.1384L89.528 57.8375C91.6666 59.7088 94.9558 59.7088 97.0945 57.8375L110.465 46.1384C111.116 45.5685 111.182 44.5787 110.612 43.9273Z" fill="#A07B50"/>
<path d="M77.4335 90.3873H65.8029C70.9836 86.5323 79.0005 79.3615 79.0005 71.8982C79.0005 66.4266 74.5487 61.9748 69.077 61.9748C63.6054 61.9748 59.1536 66.4266 59.1536 71.8982C59.1536 72.7638 59.8552 73.465 60.7204 73.465C61.5856 73.465 62.2871 72.7636 62.2871 71.8982C62.2871 68.1543 65.3331 65.1085 69.0768 65.1085C72.8206 65.1085 75.8665 68.1543 75.8665 71.8982C75.8665 80.9205 60.0732 90.5147 59.9139 90.6103C59.2987 90.9793 59.0096 91.7444 59.2268 92.4282C59.431 93.0715 60.0456 93.5208 60.7202 93.5208H77.4333C78.2987 93.5208 79 92.8194 79 91.954C79.0005 91.0886 78.2989 90.3873 77.4335 90.3873Z" fill="#A07B50"/>
<path d="M102.503 83.7022H99.0563V63.5419C99.0563 62.8996 98.6492 62.3078 98.0496 62.0783C97.4101 61.8336 96.665 62.0434 96.2475 62.5862L79.5344 84.3132C78.7566 85.3245 79.503 86.8355 80.7764 86.8355H95.9227V91.9539C95.9227 92.8195 96.6243 93.5207 97.4895 93.5207C98.3547 93.5207 99.0563 92.8193 99.0563 91.9539V86.8355H102.503C103.369 86.8355 104.07 86.1341 104.07 85.2687C104.07 84.4033 103.369 83.7022 102.503 83.7022ZM95.9225 83.7022H83.9582L95.9225 68.1487V83.7022Z" fill="#A07B50"/>
<path d="M47.3499 42.7547C40.2653 42.7547 34.5015 48.5185 34.5015 55.6031C34.5015 62.0785 39.3046 65.9445 47.3499 65.9445C55.3952 65.9445 60.1982 62.0785 60.1982 55.6031C60.1982 48.5185 54.4345 42.7547 47.3499 42.7547ZM47.3499 62.8105C43.7219 62.8105 37.6353 61.8741 37.6353 55.6029C37.6353 50.246 41.9932 45.8882 47.3499 45.8882C52.7064 45.8882 57.0645 50.246 57.0645 55.6029C57.0645 61.8741 50.9779 62.8105 47.3499 62.8105Z" stroke="#1F1C1D" stroke-width="2" mask="url(#path-1-inside-1)"/>
<path d="M41.0824 30.2198C37.8797 30.2198 35.755 34.1809 35.755 36.8008C35.755 39.7382 38.1447 42.1282 41.0824 42.1282C44.0201 42.1282 46.4098 39.7384 46.4098 36.8008C46.4098 34.1807 44.2851 30.2198 41.0824 30.2198ZM41.0824 38.9943C39.8728 38.9943 38.8887 38.0104 38.8887 36.8005C38.8887 35.3184 40.1393 33.3533 41.0824 33.3533C42.0255 33.3533 43.2761 35.3184 43.2761 36.8005C43.2761 38.0101 42.292 38.9943 41.0824 38.9943Z" stroke="#1F1C1D" stroke-width="2" mask="url(#path-1-inside-1)"/>
<path d="M53.6173 30.2198C50.4146 30.2198 48.2899 34.1809 48.2899 36.8008C48.2899 39.7382 50.6796 42.1282 53.6173 42.1282C56.555 42.1282 58.9447 39.7384 58.9447 36.8008C58.9447 34.1807 56.82 30.2198 53.6173 30.2198ZM53.6173 38.9943C52.4077 38.9943 51.4236 38.0104 51.4236 36.8005C51.4236 35.3184 52.6741 33.3533 53.6173 33.3533C54.5604 33.3533 55.811 35.3184 55.811 36.8005C55.811 38.0101 54.8269 38.9943 53.6173 38.9943Z" stroke="#1F1C1D" stroke-width="2" mask="url(#path-1-inside-1)"/>
<path d="M63.6451 37.7408C60.4424 37.7408 58.3177 41.7019 58.3177 44.3217C58.3177 47.2592 60.7074 49.6491 63.6451 49.6491C66.5828 49.6491 68.9725 47.2594 68.9725 44.3217C68.9725 41.7017 66.8478 37.7408 63.6451 37.7408ZM63.6451 46.5152C62.4355 46.5152 61.4514 45.5313 61.4514 44.3215C61.4514 42.8394 62.702 40.8743 63.6451 40.8743C64.5883 40.8743 65.8388 42.8394 65.8388 44.3215C65.8388 45.5311 64.8547 46.5152 63.6451 46.5152Z" stroke="#1F1C1D" stroke-width="2" mask="url(#path-1-inside-1)"/>
<path d="M31.0544 37.7408C27.8517 37.7408 25.727 41.7019 25.727 44.3217C25.727 47.2592 28.1167 49.6491 31.0544 49.6491C33.9921 49.6491 36.3818 47.2594 36.3818 44.3217C36.3818 41.7017 34.2571 37.7408 31.0544 37.7408ZM31.0544 46.5152C29.8448 46.5152 28.8607 45.5313 28.8607 44.3215C28.8607 42.8394 30.1112 40.8743 31.0544 40.8743C31.9975 40.8743 33.2481 42.8394 33.2481 44.3215C33.2481 45.5311 32.264 46.5152 31.0544 46.5152Z" stroke="#1F1C1D" stroke-width="2" mask="url(#path-1-inside-1)"/>
<path d="M50.6925 52.7826H48.9168V51.0069C48.9168 50.1413 48.2152 49.4401 47.35 49.4401C46.4848 49.4401 45.7833 50.1415 45.7833 51.0069V52.7826H44.0075C43.1421 52.7826 42.4408 53.484 42.4408 54.3494C42.4408 55.215 43.1424 55.9161 44.0075 55.9161H45.7833V57.6919C45.7833 58.5575 46.4848 59.2586 47.35 59.2586C48.2152 59.2586 48.9168 58.5573 48.9168 57.6919V55.9161H50.6925C51.5579 55.9161 52.2593 55.2148 52.2593 54.3494C52.2593 53.484 51.5577 52.7826 50.6925 52.7826Z" stroke="#1F1C1D" stroke-width="2" mask="url(#path-1-inside-1)"/>
<path d="M66.1969 3.26783C61.4824 1.74412 56.547 0.971924 51.5281 0.971924C38.8327 0.971924 26.8974 5.91566 17.9204 14.8926C8.94374 23.8695 4 35.8048 4 48.5C4 61.1952 8.94373 73.1305 17.9207 82.1076C26.8976 91.0845 38.8329 96.0283 51.5283 96.0283C52.3937 96.0283 53.095 95.3269 53.095 94.4615C53.095 93.5959 52.3935 92.8948 51.5283 92.8948C39.6701 92.8948 28.5216 88.2768 20.1367 79.892C11.7516 71.5065 7.13372 60.3582 7.13372 48.5C7.13372 36.6418 11.7516 25.4935 20.1365 17.1084C28.5216 8.72316 39.6699 4.10564 51.5281 4.10564C56.2196 4.10564 60.8304 4.82706 65.2333 6.25003C66.0458 6.51356 66.9434 6.05317 67.2061 5.24106C67.4688 4.42832 67.0094 3.53031 66.1969 3.26783Z" stroke="#1F1C1D" stroke-width="2" mask="url(#path-1-inside-1)"/>
<path d="M110.612 43.9273L105.11 37.6382C104.548 36.9959 103.541 36.9284 102.899 37.4906L98.516 41.3255C97.004 31.3688 92.319 22.0755 85.1356 14.8921C81.712 11.4685 77.8306 8.605 73.5984 6.38141C72.8425 5.9835 71.8797 6.28361 71.4825 7.03929C71.0854 7.79519 71.3847 8.75798 72.1405 9.15526C76.0929 11.2324 79.7194 13.908 82.9195 17.1082C90.4058 24.5944 94.8429 34.0996 95.751 44.5959C95.8594 45.8481 97.3957 46.4696 98.3438 45.64L103.783 40.8808L107.222 44.8113L95.0304 55.4789C94.0584 56.3295 92.5633 56.3295 91.5911 55.4789L79.3996 44.8113L82.8389 40.8808L87.8392 45.2561C88.8963 46.1808 90.5911 45.2868 90.4273 43.8937C88.1082 24.1883 71.3851 9.3283 51.5282 9.3283C29.9288 9.3283 12.3566 26.9005 12.3566 48.4999C12.3566 70.0993 29.9288 87.6715 51.5282 87.6715C52.3936 87.6715 53.095 86.9702 53.095 86.1046C53.095 85.2389 52.3934 84.5378 51.5282 84.5378C31.6569 84.5378 15.4903 68.3714 15.4903 48.4999C15.4903 28.6284 31.6567 12.462 51.528 12.462C68.3199 12.462 82.6765 24.0132 86.544 39.9587L83.7235 37.4908C83.0811 36.9289 82.0742 36.9966 81.5127 37.6384L76.0099 43.9275C75.44 44.5787 75.506 45.5685 76.1574 46.1384L89.528 57.8375C91.6666 59.7088 94.9558 59.7088 97.0945 57.8375L110.465 46.1384C111.116 45.5685 111.182 44.5787 110.612 43.9273Z" stroke="#1F1C1D" stroke-width="2" mask="url(#path-1-inside-1)"/>
<path d="M77.4335 90.3873H65.8029C70.9836 86.5323 79.0005 79.3615 79.0005 71.8982C79.0005 66.4266 74.5487 61.9748 69.077 61.9748C63.6054 61.9748 59.1536 66.4266 59.1536 71.8982C59.1536 72.7638 59.8552 73.465 60.7204 73.465C61.5856 73.465 62.2871 72.7636 62.2871 71.8982C62.2871 68.1543 65.3331 65.1085 69.0768 65.1085C72.8206 65.1085 75.8665 68.1543 75.8665 71.8982C75.8665 80.9205 60.0732 90.5147 59.9139 90.6103C59.2987 90.9793 59.0096 91.7444 59.2268 92.4282C59.431 93.0715 60.0456 93.5208 60.7202 93.5208H77.4333C78.2987 93.5208 79 92.8194 79 91.954C79.0005 91.0886 78.2989 90.3873 77.4335 90.3873Z" stroke="#1F1C1D" stroke-width="2" mask="url(#path-1-inside-1)"/>
<path d="M102.503 83.7022H99.0563V63.5419C99.0563 62.8996 98.6492 62.3078 98.0496 62.0783C97.4101 61.8336 96.665 62.0434 96.2475 62.5862L79.5344 84.3132C78.7566 85.3245 79.503 86.8355 80.7764 86.8355H95.9227V91.9539C95.9227 92.8195 96.6243 93.5207 97.4895 93.5207C98.3547 93.5207 99.0563 92.8193 99.0563 91.9539V86.8355H102.503C103.369 86.8355 104.07 86.1341 104.07 85.2687C104.07 84.4033 103.369 83.7022 102.503 83.7022ZM95.9225 83.7022H83.9582L95.9225 68.1487V83.7022Z" stroke="#1F1C1D" stroke-width="2" mask="url(#path-1-inside-1)"/>
</g>
<defs>
<filter id="filter0_d" x="0" y="0.971924" width="115" height="103.056" filterUnits="userSpaceOnUse" color-interpolation-filters="sRGB">
<feFlood flood-opacity="0" result="BackgroundImageFix"/>
<feColorMatrix in="SourceAlpha" type="matrix" values="0 0 0 0 0 0 0 0 0 0 0 0 0 0 0 0 0 0 127 0"/>
<feOffset dy="4"/>
<feGaussianBlur stdDeviation="2"/>
<feColorMatrix type="matrix" values="0 0 0 0 0 0 0 0 0 0 0 0 0 0 0 0 0 0 0.25 0"/>
<feBlend mode="normal" in2="BackgroundImageFix" result="effect1_dropShadow"/>
<feBlend mode="normal" in="SourceGraphic" in2="effect1_dropShadow" result="shape"/>
</filter>
</defs>
</svg>
